<svg xmlns="http://www.w3.org/2000/svg" width="200" height="200" viewBox="0 0 200 200">
  <defs>
    <linearGradient id="cloud" x1="0.2" y1="0" x2="0.8" y2="1">
      <stop offset="0%" stop-color="#c9a8ff"/>
      <stop offset="60%" stop-color="#9b6dff"/>
      <stop offset="100%" stop-color="#5b2e99"/>
    </linearGradient>
  </defs>
  <rect width="200" height="200" rx="24" fill="#2c2c2c"/>
  <path d="
    M 54 130
    C 42 130, 34 122, 34 112
    C 34 102, 42 94, 54 94
    C 50 78, 62 62, 80 60
    C 94 58, 106 66, 112 78
    C 118 64, 132 56, 146 64
    C 158 70, 162 84, 156 96
    C 166 100, 172 110, 168 122
    C 164 132, 154 136, 142 136
    L 54 136
    Z
  " fill="url(#cloud)"/>
</svg>
