<svg width="143" height="83" viewBox="0 0 143 83" fill="none" xmlns="http://www.w3.org/2000/svg">
<path d="M21.1 75.9308C8.44 75.9308 0 67.2908 0 56.4908C0 45.6908 8.44 37.0508 21.1 37.0508C16.88 19.7708 29.54 2.49079 48.53 0.33079C63.3 -1.82921 75.96 6.81079 82.29 19.7708C88.62 4.65079 103.39 -3.98921 118.16 4.65079C130.82 11.1308 135.04 26.2508 128.71 39.2108C139.26 43.5308 145.59 54.3308 141.37 67.2908C137.15 78.0908 126.6 82.4108 113.94 82.4108H21.1V75.9308Z" fill="url(#paint0_linear_3_42)"/>
<path d="M47.5398 46.7143C47.5398 46.7143 47.5398 37.7143 57.5399 37.7143" stroke="#E3D6FF" stroke-width="6"/>
<g clip-path="url(#clip0_3_42)">
<path d="M80.1563 37.715C80.1563 37.0785 79.8692 36.4784 79.3742 36.0799L68.3427 27.1799C67.9617 26.8732 67.4947 26.7143 67.0234 26.7143C66.716 26.7143 66.4058 26.7836 66.118 26.9195C65.3884 27.2689 64.9234 28.0062 64.9234 28.815V46.6136C64.9234 47.4217 65.3884 48.1597 66.118 48.5091C66.8483 48.8564 67.7138 48.757 68.3434 48.2486L79.3756 39.3493C79.8692 38.9516 80.1563 38.3508 80.1563 37.715Z" fill="#E3D6FF"/>
</g>
<line x1="57.5399" y1="37.7143" x2="66.5399" y2="37.7143" stroke="#E3D6FF" stroke-width="6"/>
<line x1="47.5399" y1="55.7143" x2="47.5399" y2="46.7143" stroke="#E3D6FF" stroke-width="6"/>
<path d="M101.54 49.7143C101.54 49.7143 101.54 58.7143 91.5398 58.7143" stroke="#E3D6FF" stroke-width="6"/>
<g clip-path="url(#clip1_3_42)">
<path d="M68.9234 58.7136C68.9234 59.3501 69.2105 59.9502 69.7055 60.3486L80.7371 69.2486C81.118 69.5553 81.585 69.7143 82.0563 69.7143C82.3637 69.7143 82.6739 69.645 82.9617 69.5091C83.6914 69.1597 84.1563 68.4224 84.1563 67.6136L84.1563 49.815C84.1563 49.0069 83.6914 48.2689 82.9617 47.9195C82.2314 47.5721 81.3659 47.6716 80.7364 48.1799L69.7041 57.0792C69.2105 57.477 68.9234 58.0778 68.9234 58.7136Z" fill="#E3D6FF"/>
</g>
<line x1="91.5399" y1="58.7143" x2="82.5399" y2="58.7143" stroke="#E3D6FF" stroke-width="6"/>
<line x1="101.54" y1="40.7143" x2="101.54" y2="49.7143" stroke="#E3D6FF" stroke-width="6"/>
<defs>
<linearGradient id="paint0_linear_3_42" x1="28.5384" y1="-1.05609e-06" x2="63.2129" y2="100.063" gradientUnits="userSpaceOnUse">
<stop stop-color="#C9A8FF"/>
<stop offset="0.6" stop-color="#9B6DFF"/>
<stop offset="1" stop-color="#5B2E99"/>
</linearGradient>
<clipPath id="clip0_3_42">
<rect width="22" height="22" fill="white" transform="matrix(1 0 0 -1 61.5399 48.7143)"/>
</clipPath>
<clipPath id="clip1_3_42">
<rect width="22" height="22" fill="white" transform="matrix(-1 -8.74228e-08 -8.74228e-08 1 87.5399 47.7143)"/>
</clipPath>
</defs>
</svg>
