<svg width="181" height="185" viewBox="0 0 181 185" fill="none" xmlns="http://www.w3.org/2000/svg">
<g clip-path="url(#clip0_3_22)">
<path d="M159.28 0H21.72C9.72438 0 0 9.93928 0 22.2V162.8C0 175.061 9.72438 185 21.72 185H159.28C171.276 185 181 175.061 181 162.8V22.2C181 9.93928 171.276 0 159.28 0Z" fill="#2C2C2C"/>
<path d="M40.1 126.931C27.44 126.931 19 118.291 19 107.491C19 96.6908 27.44 88.0508 40.1 88.0508C35.88 70.7708 48.54 53.4908 67.53 51.3308C82.3 49.1708 94.96 57.8108 101.29 70.7708C107.62 55.6508 122.39 47.0108 137.16 55.6508C149.82 62.1308 154.04 77.2508 147.71 90.2108C158.26 94.5308 164.59 105.331 160.37 118.291C156.15 129.091 145.6 133.411 132.94 133.411H40.1V126.931Z" fill="url(#paint0_linear_3_22)"/>
<path d="M66.5398 97.7143C66.5398 97.7143 66.5398 88.7143 76.5399 88.7143" stroke="#E3D6FF" stroke-width="6"/>
<g clip-path="url(#clip1_3_22)">
<path d="M99.1563 88.715C99.1563 88.0785 98.8692 87.4784 98.3742 87.0799L87.3427 78.1799C86.9617 77.8732 86.4947 77.7143 86.0234 77.7143C85.716 77.7143 85.4058 77.7836 85.118 77.9195C84.3884 78.2689 83.9234 79.0062 83.9234 79.815V97.6136C83.9234 98.4217 84.3884 99.1597 85.118 99.5091C85.8483 99.8564 86.7138 99.757 87.3434 99.2486L98.3756 90.3493C98.8692 89.9516 99.1563 89.3508 99.1563 88.715Z" fill="#E3D6FF"/>
</g>
<line x1="76.5399" y1="88.7143" x2="85.5399" y2="88.7143" stroke="#E3D6FF" stroke-width="6"/>
<line x1="66.5399" y1="106.714" x2="66.5399" y2="97.7143" stroke="#E3D6FF" stroke-width="6"/>
<path d="M120.54 100.714C120.54 100.714 120.54 109.714 110.54 109.714" stroke="#E3D6FF" stroke-width="6"/>
<g clip-path="url(#clip2_3_22)">
<path d="M87.9234 109.714C87.9234 110.35 88.2105 110.95 88.7055 111.349L99.7371 120.249C100.118 120.555 100.585 120.714 101.056 120.714C101.364 120.714 101.674 120.645 101.962 120.509C102.691 120.16 103.156 119.422 103.156 118.614L103.156 100.815C103.156 100.007 102.691 99.2689 101.962 98.9195C101.231 98.5721 100.366 98.6716 99.7364 99.1799L88.7041 108.079C88.2105 108.477 87.9234 109.078 87.9234 109.714Z" fill="#E3D6FF"/>
</g>
<line x1="110.54" y1="109.714" x2="101.54" y2="109.714" stroke="#E3D6FF" stroke-width="6"/>
<line x1="120.54" y1="91.7143" x2="120.54" y2="100.714" stroke="#E3D6FF" stroke-width="6"/>
</g>
<defs>
<linearGradient id="paint0_linear_3_22" x1="47.5384" y1="51" x2="82.2129" y2="151.063" gradientUnits="userSpaceOnUse">
<stop stop-color="#C9A8FF"/>
<stop offset="0.6" stop-color="#9B6DFF"/>
<stop offset="1" stop-color="#5B2E99"/>
</linearGradient>
<clipPath id="clip0_3_22">
<rect width="181" height="185" fill="white"/>
</clipPath>
<clipPath id="clip1_3_22">
<rect width="22" height="22" fill="white" transform="matrix(1 0 0 -1 80.5399 99.7143)"/>
</clipPath>
<clipPath id="clip2_3_22">
<rect width="22" height="22" fill="white" transform="matrix(-1 -8.74228e-08 -8.74228e-08 1 106.54 98.7143)"/>
</clipPath>
</defs>
</svg>
